<svg xmlns="http://www.w3.org/2000/svg" width="3273.147" height="1090.067" viewBox="0 0 3273.147 1090.067">
  <g id="Group_2" data-name="Group 2" transform="translate(-536.853 1343)">
    <g id="Group_1" data-name="Group 1" transform="matrix(0.656, -0.755, 0.755, 0.656, 2154.155, -442.795)">
      <path id="Path_2" data-name="Path 2" d="M1304.51,761.045s182.594-107.907,254.074-138.2,152.225,87.466,212.545,146.746C1768.009,768.548,1304.51,761.045,1304.51,761.045Z" transform="translate(-788.986 -2890.886) rotate(45)" fill="#41c4ff"/>
      <path id="Path_1" data-name="Path 1" d="M1295.264,753.476l514.727,513.349H1950.6l-.1-320.988s-185.988-190.47-192.08-185.358C1736.006,750.675,1295.264,753.476,1295.264,753.476Z" transform="translate(-787.863 -2879.182) rotate(45)" fill="#03589c"/>
      <path id="Path_3" data-name="Path 3" d="M689.353,407.982,54.394,405.738S-30.74,375.5,12.007,291.232c-1.737,2.994-32.08-121.372,58.291-168.9-1.737,1.5,82.388-166.388,266.487-105.019C342,21.807,489.622-50.04,566.041,69.7c1.737,1.5,123.312,4.49,112.891,100.286,0,4.49,122.127,23.059,95.523,130.222C778.924,395.394,689.353,407.982,689.353,407.982Z" transform="translate(-819 -652.754) rotate(-90)" fill="#41c4ff"/>
      <path id="Path_4" data-name="Path 4" d="M272.9,784.316s-85.784-10.325-71.512-79.241S191.87,600.86,191.87,600.86s-96.729-28.575-111,89.087c0,3.362-80.872-26.894-95.143,55.469,1.586,0,57.086-8.4,79.286,23.532,4.757,3.362,31.714-3.362,33.3-23.532s7.2-27.44,7.2-27.44,18.726-9.054,25.3,14.278S94.015,800.16,94.015,800.16s12.145,95.592-13.146,92.806-13.793-23.332-13.793-23.332,9.845-82.924-92.49-76.308-47.3,183.043-47.3,183.043-43.858,177.428,58.97,219.217c.329,1.045-6.57-101.337,22.011-87.408s14.455,82.881,14.455,82.881,79.667,150.439,199.742,25.073c1.15.7.493-72.085-23.489-119.794s29.567-80.1,38.109-81.14,35.809-2.786,35.809-2.786l-1.741-151.856S204.7,903.923,222.468,976.369c1.864,21.243-29.74,14.453-29.74,14.453s-18.25-108.311,29.74-136.379c1.437-1.132-77.573-42.468-46.823-70.127,16.656-9.1,23.333,9.011,23.333,9.011s34.076,42.1,73.918,34.406C274.3,826.374,272.9,784.316,272.9,784.316Z" transform="translate(-708.009 -1981.041)" fill="#03589c"/>
      <path id="Path_5" data-name="Path 5" d="M31.932,964.964s83.168,1.353,92.952-23.675c1.223,1.353,0-178.58,0-178.58s-87.6-13.856-63.137,30.789c1.223,0,47.237,98.411,26.445,126.145S31.932,964.964,31.932,964.964Z" transform="translate(-559.916 -1680)" fill="#03589c"/>
      <path id="Path_6" data-name="Path 6" d="M-24.032,716.216S-66.249,730.8-46.2,781.557c20.053,35.588,50.661,7,50.661,7s83.379-10.5,82.324,70.008-52.772,75.259-52.772,75.259-34.3-1.167-8.443-25.086c1.055,0,44.328-8.751,33.246-60.674S1.826,818.311,1.826,818.311s-51.716,14-69.131-21,0-81.093,0-81.093,17.942-27.42,32.718-22.753S-24.032,716.216-24.032,716.216Z" transform="translate(-652 -1774)" fill="#41c4ff"/>
      <path id="Path_7" data-name="Path 7" d="M37.389,600.388s52.717,76.9,0,112.337c7.7,67.713,48.128,22.1,55.206,16.574s0-74.584,0-99.446S37.389,600.388,37.389,600.388Z" transform="translate(-530.229 -1976.082)" fill="#03589c"/>
    </g>
    <text id="DBrain" transform="translate(1661 -554)" fill="#03589c" font-size="731" font-family="SegoeUI, Segoe UI"><tspan x="0" y="0">D</tspan><tspan y="0" fill="#41c4ff">Br</tspan><tspan y="0">ai</tspan><tspan y="0" fill="#41c4ff">n</tspan></text>
  </g>
</svg>
